# xmcd
#
# Track frame offsets: 
#        150
#        12388
#        25880
#        40455
#        53373
#        68489
#        83157
#        95250
#        109613
#        123679
#        138647
#        153554
#        166321
#        181836
#        195291
#        210255
#
# Disc length: 2999 seconds
#
# Revision: 2
# Processed by: cddbd v1.5.2PL0 Copyright (c) Steve Scherf et al.
# Submitted via: ExactAudioCopyFreeDBPlugin 1.0
#
DISCID=c70bb510
DTITLE=Ma Rainey - Night Time Blues
DYEAR=1900
DGENRE=
TTITLE0=Stormy Sea Blues
TTITLE1=Night Time Blues
TTITLE2=Explaning The Blues
TTITLE3=Army Camp Harmony Blues
TTITLE4=Countin' The Blues
TTITLE5=Cell Bound Blues
TTITLE6=Shave 'Em Dry Blues
TTITLE7=Toad Frog Blues
TTITLE8=Farewell Daddy Blues
TTITLE9=Jealous Hearted Blues
TTITLE10=Jelly Bean Blues
TTITLE11=Rough And Tumble Blues
TTITLE12=Goodbye Daddy Blues
TTITLE13=Lousiana Hoo Doo Blues
TTITLE14=See See Rider Blues
TTITLE15=Booze And Blues
EXTD=
EXTT0=
EXTT1=
EXTT2=
EXTT3=
EXTT4=
EXTT5=
EXTT6=
EXTT7=
EXTT8=
EXTT9=
EXTT10=
EXTT11=
EXTT12=
EXTT13=
EXTT14=
EXTT15=
PLAYORDER=
